<svg width="64" height="64" viewBox="0 0 64 64" fill="none" xmlns="http://www.w3.org/2000/svg">
<path d="M63.5933 30.6025C63.5899 13.6978 49.8828 -0.00341734 32.9775 6.39362e-07C16.0728 0.00341861 2.37158 13.7109 2.375 30.6157C2.37793 43.9316 10.9888 55.7178 23.6738 59.7681C23.7949 59.8062 23.9209 59.8257 24.0474 59.8252C24.2886 59.8247 24.5249 59.7603 24.7324 59.6377C25.0024 59.478 25.2041 59.2241 25.2988 58.9248L33.0288 34.4248C35.1421 34.4141 36.8462 32.6919 36.835 30.5791C36.8242 28.4658 35.1025 26.7617 32.9893 26.7725C32.4209 26.7749 31.8599 26.9058 31.3491 27.1553L21.1372 16.9419C20.6304 16.4526 19.8232 16.4668 19.334 16.9731C18.8564 17.4678 18.8564 18.251 19.334 18.7456L29.5405 28.9639C28.7573 30.5625 29.2051 32.4922 30.6133 33.582L23.248 56.9277C8.69238 51.5659 1.23926 35.4199 6.60108 20.8643C11.9629 6.30859 28.1089 -1.14453 42.6646 4.21729C57.2202 9.5791 64.6733 25.7256 59.3115 40.2808C56.6919 47.3921 51.3096 53.1431 44.3872 56.2275L43.5913 52.479C43.4458 51.79 42.7686 51.3496 42.0796 51.4956C41.8623 51.542 41.6606 51.644 41.4946 51.792L33.8208 58.6431C33.2944 59.1113 33.2476 59.9175 33.7163 60.4439C33.8687 60.6148 34.064 60.7417 34.2827 60.8115L44.0801 63.9385C44.7505 64.1538 45.4688 63.7852 45.6841 63.1143C45.7524 62.9024 45.7637 62.6768 45.7178 62.459L44.9356 58.7808C56.2642 54.0049 63.6196 42.8965 63.5933 30.6025V30.6025ZM32.9844 29.3272C33.6885 29.3272 34.2598 29.8984 34.2598 30.6025C34.2598 31.3071 33.6885 31.8779 32.9844 31.8779C32.2798 31.8779 31.709 31.3071 31.709 30.6025C31.709 29.8984 32.2798 29.3272 32.9844 29.3272ZM37.1851 59.0552L41.5532 55.1587L42.7588 60.8394L37.1851 59.0552Z" fill="#2E2F42"/>
<path d="M30.709 6.37012V8.9209C30.709 9.62549 31.2798 10.1963 31.9844 10.1963C32.6885 10.1963 33.2598 9.62549 33.2598 8.9209V6.37012C33.2598 5.66602 32.6885 5.09473 31.9844 5.09473C31.2798 5.09473 30.709 5.66602 30.709 6.37012Z" fill="#4D5AE5"/>
<path d="M7.75195 29.3271C7.04736 29.3271 6.47656 29.8984 6.47656 30.6025C6.47656 31.3071 7.04736 31.8779 7.75195 31.8779H10.3027C11.0073 31.8779 11.5781 31.3071 11.5781 30.6025C11.5781 29.8984 11.0073 29.3271 10.3027 29.3271H7.75195Z" fill="#4D5AE5"/>
<path d="M56.2162 31.8779C56.9208 31.8779 57.4916 31.3071 57.4916 30.6025C57.4916 29.8984 56.9208 29.3271 56.2162 29.3271H53.6655C52.9614 29.3271 52.3901 29.8984 52.3901 30.6025C52.3901 31.3071 52.9614 31.8779 53.6655 31.8779H56.2162Z" fill="#4D5AE5"/>
</svg>
